<svg xmlns:xlink="http://www.w3.org/1999/xlink" xmlns="http://www.w3.org/2000/svg" width="71" viewBox="0 0 153 151" height="71"><defs/><g transform="translate(-365.00,-226.43)"><g transform="translate(407.00,227.43)" id="group1"><path fill-rule="nonzero" d="M28.3,31.9C29.3,34.8,32.1,36.7,35.2,36.8L76.0,36.8C79.2,36.8,82.0,34.8,83.2,31.9C84.1,29.0,83.3,25.9,81.0,23.8C79.5,22.9,78.0,22.1,76.4,21.4C71.4,20.0,71.4,19.6,71.4,18.9L71.4,14.0C70.5,6.1,63.7,.0,55.6,.0C47.4,.0,40.5,6.0,39.8,14.0L39.8,18.9C39.8,19.6,39.8,20.0,36.3,21.0C35.9,21.0,35.6,21.4,35.2,21.4C33.2,21.9,31.4,22.8,29.8,24.2C27.6,26.1,27.0,29.3,28.3,31.9zM34.1,28.4C34.8,27.8,35.7,27.3,36.6,27.0C37.3,27.0,37.7,27.0,38.0,26.7C40.9,26.0,45.6,24.5,45.6,19.3L45.6,14.1C46.3,9.2,50.6,5.6,55.6,5.6C60.5,5.6,64.7,9.3,65.3,14.1L65.3,19.3C65.3,24.2,69.9,25.6,73.3,26.7C74.8,27.0,76.2,27.6,77.6,28.4C77.9,28.9,78.0,29.6,77.9,30.2C77.5,30.7,76.8,31.1,76.1,31.2L35.1,31.2C34.4,31.2,33.7,30.9,33.7,30.2C33.7,29.5,33.4,28.8,34.1,28.4zM98.2,14.6L81.4,14.6C79.4,14.6,77.8,16.2,77.8,18.1C77.8,20.0,79.4,21.6,81.4,21.6L98.2,21.6C100.6,21.6,102.7,23.4,102.9,25.8L102.9,137.7C102.8,140.2,100.8,142.2,98.2,142.3L11.5,142.3C9.1,142.1,7.2,140.1,7.2,137.7L7.2,25.8C7.4,23.5,9.2,21.8,11.5,21.6L26.5,21.6C28.5,21.6,30.1,20.0,30.1,18.1C30.1,16.2,28.5,14.6,26.5,14.6L11.5,14.6C8.4,14.6,5.5,15.7,3.3,17.8C1.2,19.9,.0,22.8,.0,25.8L.0,137.7C.0,140.8,1.1,143.7,3.3,145.8C5.4,148.0,8.4,149.3,11.5,149.3L98.2,149.3C104.7,149.3,110.0,144.1,110.0,137.7L110.0,25.8C110.0,19.5,104.6,14.6,98.2,14.6zM83.1,60.7L26.9,60.7C24.7,60.7,22.9,62.5,22.9,64.6C22.9,65.7,22.9,66.7,24.0,67.5C24.8,68.3,25.8,68.7,26.9,68.7L83.1,68.7C84.2,68.7,85.2,68.3,86.0,67.5C86.7,66.7,87.1,65.7,87.1,64.6C87.1,62.5,85.3,60.7,83.1,60.7zM83.1,81.3L26.9,81.3C24.7,81.3,22.9,83.1,22.9,85.2C22.9,86.3,22.9,87.4,24.0,88.1C24.8,88.9,25.8,89.4,26.9,89.4L83.1,89.4C84.2,89.4,85.2,88.9,86.0,88.1C86.7,87.4,87.1,86.3,87.1,85.2C87.1,83.1,85.3,81.3,83.1,81.3zM83.1,101.0L26.9,101.0C24.7,101.0,22.9,102.8,22.9,104.9C22.9,106.0,22.9,107.1,24.0,107.8C24.8,108.6,25.8,109.0,26.9,109.0L83.1,109.0C84.2,109.0,85.2,108.6,86.0,107.8C86.7,107.1,87.1,106.0,87.1,104.9C87.1,102.8,85.3,101.0,83.1,101.0z" id="shape3" fill="#4c4c4c"/></g><g transform="translate(366.00,270.00)" id="group4"><path stroke-width="1" fill-rule="nonzero" stroke="#e08a13" d="M80.0,40.0C80.0,62.1,62.1,80.0,40.0,80.0C17.9,80.0,.0,62.1,.0,40.0C.0,17.9,17.9,.0,40.0,.0C62.1,.0,80.0,17.9,80.0,40.0z" id="shape5" fill="#e08a13"/><g transform="translate(12.96,11.53)" id="group6"><path transform="translate(17.70,2.86)" fill-rule="nonzero" d="M9.3,.0C14.4,.0,18.6,4.1,18.7,9.1L.0,9.1C.1,4.1,4.3,.0,9.3,.0z" id="shape7" fill="#ffffff"/><path transform="translate(12.88,15.92)" fill-rule="nonzero" d="M.0,22.7L.0,.0L28.3,.0L28.2,22.7C27.4,29.3,22.2,34.5,15.6,35.1L15.6,12.5L12.7,12.5L12.7,35.1C6.2,34.5,.9,29.3,.0,22.7z" id="shape8" fill="#ffffff"/><path transform="translate(6.70,41.88)" fill-rule="nonzero" d="M11.8,.3C12.3,.8,12.3,1.7,11.8,2.2L2.2,11.8C1.7,12.3,.8,12.3,.3,11.8C.0,11.3,.0,10.4,.3,9.9L9.9,.3C10.4,.0,11.2,.0,11.8,.3zM28.9,.3C28.4,.8,28.4,1.7,28.9,2.2L38.5,11.8C39.0,12.3,39.9,12.3,40.4,11.8C40.8,11.3,40.8,10.4,40.4,9.9L30.8,.3C30.3,.0,29.4,.0,28.9,.3z" id="shape9" fill="#ffffff"/><path transform="translate(6.74,10.97)" fill-rule="nonzero" d="M11.7,11.9C12.3,11.3,12.3,10.5,11.7,10.0L2.2,.4C1.6,-0.2,.8,-0.2,.3,.4C.0,.9,.0,1.7,.3,2.3L9.8,11.9C10.3,12.2,11.2,12.2,11.7,11.9zM28.9,11.9C28.4,11.3,28.4,10.5,28.9,10.0L38.4,.4C39.0,-0.2,39.8,-0.2,40.4,.4C40.8,.9,40.8,1.7,40.4,2.3L30.8,11.9C30.3,12.2,29.4,12.2,28.9,11.9z" id="shape10" fill="#ffffff"/><path transform="translate(0.00,29.57)" fill-rule="nonzero" d="M16.2,1.4C16.2,2.1,15.6,2.7,14.9,2.7L1.4,2.7C.6,2.7,.0,2.1,.0,1.4C.0,.6,.6,.0,1.4,.0L14.9,.0C15.6,.0,16.2,.6,16.2,1.4zM52.7,.0L39.2,.0C38.5,.0,37.9,.6,37.9,1.4C37.9,2.1,38.5,2.7,39.2,2.7L52.7,2.7C53.5,2.7,54.1,2.1,54.1,1.4C54.1,.6,53.5,.0,52.7,.0z" id="shape11" fill="#ffffff"/><path transform="translate(17.70,-0.07)" fill-rule="nonzero" d="M18.3,.3C18.8,.8,18.8,1.7,18.3,2.2L14.5,6.1C13.9,6.6,13.1,6.6,12.6,6.1C12.2,5.5,12.2,4.7,12.6,4.1L16.4,.3C16.9,.0,17.8,.0,18.3,.3zM.4,.3C.0,.8,.0,1.7,.4,2.2L4.2,6.1C4.7,6.6,5.6,6.6,6.1,6.1C6.5,5.5,6.5,4.7,6.1,4.1L2.3,.3C1.8,.0,.9,.0,.4,.3z" id="shape12" fill="#ffffff"/></g></g></g></svg>
